# xmcd
#
# Track frame offsets:
# 150
# 18709
# 32715
# 54189
# 67753
# 83205
# 96854
# 110743
# 128809
# 142783
# 162097
# 173829
# 188483
#
# Disc length: 2757 seconds
#
#
# Revision: 0
# Processed by: cddbd v1.5.1PL2 Copyright (c) Steve Scherf et al.
# Submitted via: FreeRIP 2.945 
#
DISCID=9e0ac30d
DTITLE=Randy Travis - Rise and Shine
DYEAR=2002
DGENRE=Contemporary Christian
TTITLE0=Raise Him Up
TTITLE1=Rise and Shine
TTITLE2=When Mama Prayed
TTITLE3=I'm Ready
TTITLE4=Three Wooden Crosses
TTITLE5=That's Jesus
TTITLE6=Pray For The Fish
TTITLE7=Jerusalem's Cry
TTITLE8=Keep Your Lure In The Water
TTITLE9=If You Only Knew
TTITLE10=Everywhere We Go
TTITLE11=The Gift
TTITLE12=Valley of Pain
EXTD=
EXTT0=Randy Travis - Rise and Shine
EXTT1=Randy Travis - Rise and Shine
EXTT2=Randy Travis - Rise and Shine
EXTT3=Randy Travis - Rise and Shine
EXTT4=Randy Travis - Rise and Shine
EXTT5=Randy Travis - Rise and Shine
EXTT6=Randy Travis - Rise and Shine
EXTT7=Randy Travis - Rise and Shine
EXTT8=Randy Travis - Rise and Shine
EXTT9=Randy Travis - Rise and Shine
EXTT10=Randy Travis - Rise and Shine
EXTT11=Randy Travis - Rise and Shine
EXTT12=Randy Travis - Rise and Shine
PLAYORDER=
